<svg width="56" height="56" viewBox="0 0 56 56" fill="none" xmlns="http://www.w3.org/2000/svg">
<rect width="56" height="56" rx="28" fill="#4F46E5"/>
<path fill-rule="evenodd" clip-rule="evenodd" d="M28.4686 17.2687C29.0935 16.6438 30.1065 16.6438 30.7314 17.2687L40.3314 26.8687C40.9562 27.4935 40.9562 28.5066 40.3314 29.1314L30.7314 38.7314C30.1065 39.3563 29.0935 39.3563 28.4686 38.7314C27.8438 38.1066 27.8438 37.0935 28.4686 36.4687L35.3373 29.6L16.8 29.6001C15.9164 29.6 15.2 28.8837 15.2 28C15.2 27.1164 15.9164 26.4 16.8 26.4H35.3373L28.4686 19.5314C27.8438 18.9066 27.8438 17.8935 28.4686 17.2687Z" fill="white"/>
</svg>
