<svg width="25" height="30" viewBox="0 0 25 30" fill="none" xmlns="http://www.w3.org/2000/svg">
<path d="M4.83222 8.31636L4.72284 8.44038C4.69083 8.47468 4.65883 8.50894 4.62909 8.5478C4.5993 8.58676 4.56708 8.6215 4.53729 8.65816C4.50753 8.69479 4.47755 8.73383 4.4455 8.77046L4.29413 8.96284C4.26914 8.9924 4.24625 9.02409 4.22577 9.05366L4.08808 9.24019L4.02167 9.32905C3.61893 9.89807 3.26867 10.5026 2.97479 11.1347L2.92597 11.2402C2.90311 11.2882 2.88307 11.3367 2.86249 11.3847V11.4003C2.84649 11.4346 2.81869 11.4689 2.81854 11.5009L2.76581 11.625C2.7544 11.6569 2.7411 11.6913 2.72968 11.7187C2.71822 11.7462 2.69745 11.7762 2.69745 11.8037C2.61955 12.0007 2.54578 12.2049 2.48163 12.4042C2.46796 12.4408 2.46116 12.4686 2.44745 12.5097C2.43369 12.5509 2.41034 12.592 2.41034 12.6308C2.32787 12.9378 2.24597 13.2545 2.18183 13.5683C2.17042 13.6139 2.15841 13.6662 2.15155 13.705C2.14468 13.744 2.13596 13.779 2.12909 13.8203C2.12229 13.8614 2.12449 13.9139 2.10858 13.9414C2.09254 13.9689 2.10802 13.9942 2.09198 14.0263C2.07611 14.0582 2.0855 14.0678 2.07636 14.125C2.06719 14.1822 2.05097 14.2393 2.05097 14.2919L2.03729 14.3857C2.03042 14.4407 2.01679 14.4984 2.01679 14.5488C2.00768 14.5898 2.00315 14.6285 2.00311 14.665L1.98261 14.8505V14.9746L1.96893 15.1171V15.2753C1.94836 15.5042 1.94745 15.733 1.94745 15.9619C1.94514 18.2492 2.6234 20.4862 3.89472 22.3876C5.16602 24.2889 6.97362 25.7697 9.08808 26.6416C11.2026 27.5134 13.5287 27.7369 15.7707 27.2841C18.0126 26.8314 20.0694 25.7227 21.6799 24.0986L22.1701 23.6054L22.1564 23.5917C22.6796 22.9934 23.1405 22.3433 23.5314 21.6513L24.8879 23.0761C23.9029 24.6642 22.5978 26.0301 21.0558 27.0859C19.5139 28.1417 17.7687 28.8648 15.9318 29.2089C14.095 29.5531 12.2065 29.511 10.3869 29.0849C8.56734 28.6588 6.85656 27.8582 5.36347 26.7343C3.87049 25.6106 2.62791 24.1881 1.71503 22.5576C0.802126 20.9269 0.238275 19.123 0.0607316 17.2626C-0.11673 15.4024 0.0958405 13.5257 0.683779 11.7519C1.27174 9.97807 2.22226 8.34588 3.47577 6.95991L4.83222 8.31636ZM10.2326 8.52241C9.27425 8.93365 8.40196 9.52164 7.66034 10.2548C6.14805 11.7535 5.275 13.7797 5.22479 15.9082C5.17468 18.0367 5.95067 20.1026 7.39081 21.6709C8.83097 23.2391 10.8233 24.1883 12.9484 24.3193C15.0735 24.4502 17.1665 23.7524 18.7883 22.373L20.1447 23.7294L20.09 23.7773L19.9094 23.9316L19.8127 24.0117L19.716 24.0869L19.6935 24.1035L19.6359 24.1484L19.5422 24.2226L19.4553 24.2861L19.4045 24.3232L19.3342 24.373H19.3205L19.2258 24.4394C19.1113 24.5195 19.0065 24.5888 18.9035 24.6552L18.674 24.7968L18.5344 24.8798L18.4699 24.916C18.266 25.0305 18.0551 25.1413 17.842 25.2421L17.7394 25.2919H17.7189L17.6496 25.3222L17.5217 25.3789L17.3791 25.4414L17.2355 25.498L17.1476 25.5332C17.1112 25.5491 17.0724 25.5625 17.0314 25.5761L16.9514 25.6084H16.9328L16.8664 25.6337L16.6115 25.7187L16.5295 25.7431L16.4152 25.7802L16.3391 25.8027H16.3254L16.2658 25.8212L16.1877 25.8417L16.0891 25.8701L15.966 25.9013H15.9201L15.7414 25.9433L15.4709 26L15.3674 26.0185H15.3566L15.2756 26.0322H15.2648L15.1642 26.0488C15.0452 26.0694 14.9211 26.0874 14.7951 26.1035H14.4484L14.3117 26.1171H13.4865C12.1532 26.1197 10.8322 25.8579 9.60077 25.3466C8.36953 24.8354 7.25197 24.0847 6.31268 23.1386L6.28046 23.2763C5.33651 22.3321 4.58827 21.2104 4.07831 19.9765C3.56837 18.7426 3.30686 17.42 3.30878 16.0849C3.31072 14.75 3.57571 13.4285 4.08905 12.1962C4.60249 10.9639 5.35446 9.84472 6.30097 8.90327C7.03556 8.17483 7.87635 7.56137 8.79413 7.08394L10.2326 8.52241ZM6.68378 0.907179C9.41095 -0.148176 12.408 -0.286807 15.2209 0.512648C18.0336 1.31208 20.5092 3.00605 22.2736 5.33784C24.0381 7.66979 24.9955 10.5132 25.0002 13.4375C25.0105 16.7782 23.7714 20.0024 21.5266 22.4765L20.1701 21.1201C20.2091 21.0788 20.2438 21.0373 20.2805 20.996L20.3742 20.8857L20.4592 20.7832L20.551 20.6728L20.7014 20.4785C20.7266 20.4487 20.7501 20.4161 20.7707 20.3886L20.9103 20.2011L20.9748 20.1113C21.3778 19.5428 21.7284 18.9388 22.0217 18.3066C22.0399 18.2724 22.0555 18.2376 22.0715 18.2011L22.134 18.0585V18.0429L22.1799 17.9394C22.1959 17.8983 22.2137 17.8548 22.2297 17.8183L22.2961 17.708L22.3312 17.6259C22.4068 17.429 22.4797 17.2249 22.5461 17.0234C22.5575 16.9868 22.5623 16.9613 22.5783 16.9179C22.5943 16.8744 22.6056 16.8306 22.6193 16.7871C22.6995 16.4823 22.7824 16.1635 22.8488 15.8496L22.8762 15.7148C22.883 15.6736 22.8917 15.6389 22.8986 15.5976C22.9054 15.5564 22.9041 15.5082 22.9201 15.4785C22.9359 15.4489 22.9312 15.4235 22.9357 15.3916C22.9403 15.3597 22.9423 15.3526 22.9514 15.2959C22.9605 15.2386 22.9767 15.1786 22.9767 15.1259L22.9904 15.0341C22.9973 14.9769 22.9972 14.9103 23.0109 14.8691C23.0246 14.828 23.0246 14.7894 23.0246 14.7529L23.0461 14.5673C23.0575 14.5261 23.0568 14.4891 23.0568 14.4433V14.1337C23.0774 13.9046 23.0773 13.6754 23.0773 13.4462C23.0767 11.1613 22.3982 8.92798 21.1271 7.02925C19.8559 5.13047 18.0492 3.6514 15.9367 2.78023C13.8241 1.90908 11.5002 1.68487 9.25995 2.13569C7.01977 2.58651 4.96387 3.69201 3.35272 5.31245L2.86249 5.80269L2.87811 5.81929C2.35432 6.41703 1.89323 7.06728 1.50311 7.75972L0.105654 6.36226C1.64755 3.87769 3.95675 1.96256 6.68378 0.907179ZM11.5461 3.30073C13.8197 3.30221 16.0275 4.06705 17.8146 5.47261C19.6017 6.87819 20.8653 8.84344 21.4025 11.0527C21.9398 13.262 21.7197 15.5879 20.7775 17.6572C19.8354 19.7265 18.2254 21.4194 16.2062 22.4648L14.7678 21.0263C15.7458 20.5877 16.6296 19.9633 17.3703 19.1884C18.8827 17.6897 19.7557 15.6627 19.8058 13.5341C19.8558 11.4057 19.0789 9.34055 17.6389 7.77241C16.1988 6.2043 14.2072 5.25504 12.0822 5.12398C9.95705 4.99298 7.86326 5.69076 6.2414 7.07027L4.88495 5.71089L4.94061 5.66304L5.12128 5.50972L5.22675 5.42476L5.32245 5.34663L5.34589 5.33101L5.4035 5.28511L5.49725 5.21382L5.58417 5.15034L5.63202 5.11323L5.70526 5.0605L5.72382 5.04683L5.81073 4.98726C5.92525 4.90938 6.0309 4.8385 6.13397 4.77437L6.22772 4.7148L6.37421 4.62495L6.50702 4.54683L6.56952 4.51069C6.7734 4.39616 6.98441 4.28629 7.19745 4.1855L7.30292 4.13472H7.3205L7.38983 4.10542L7.51776 4.0478L7.66034 3.98823L7.8039 3.92866L7.89179 3.89448L8.01093 3.85054L8.08808 3.82124H8.10858L8.17304 3.7978L8.42792 3.71089L8.50995 3.6855L8.62421 3.65132L8.70038 3.62886H8.71405L8.77362 3.6103L8.85175 3.5898L8.95038 3.56245L9.07343 3.53023H9.11933L9.29804 3.48628L9.5705 3.42866L9.67206 3.41109H9.68769L9.76288 3.39741H9.7746L9.87519 3.37886C9.99657 3.35825 10.1184 3.34216 10.2443 3.32612L10.343 3.31245H10.4738L10.59 3.30073H11.5461Z" fill="white"/>
</svg>
