<svg width="40" height="40" viewBox="0 0 40 40" fill="none" xmlns="http://www.w3.org/2000/svg">
<path d="M20 16.4C19.0059 16.4 18.2 15.5941 18.2 14.6C18.2 13.6059 19.0059 12.8 20 12.8C20.9941 12.8 21.8 13.6059 21.8 14.6C21.8 15.5941 20.9941 16.4 20 16.4Z" fill="#64748B"/>
<path d="M20 21.8C19.0059 21.8 18.2 20.9941 18.2 20C18.2 19.0059 19.0059 18.2 20 18.2C20.9941 18.2 21.8 19.0059 21.8 20C21.8 20.9941 20.9941 21.8 20 21.8Z" fill="#64748B"/>
<path d="M20 27.2C19.0059 27.2 18.2 26.3941 18.2 25.4C18.2 24.4059 19.0059 23.6 20 23.6C20.9941 23.6 21.8 24.4059 21.8 25.4C21.8 26.3941 20.9941 27.2 20 27.2Z" fill="#64748B"/>
</svg>
