<svg width="40" height="40" viewBox="0 0 40 40" fill="none" xmlns="http://www.w3.org/2000/svg">
<g clip-path="url(#clip0_1_383)">
<path d="M20.4373 39.9631C20.7534 39.8536 20.9601 39.6226 25.337 34.9418C27.6835 32.4372 29.8112 30.1515 30.0786 29.8719C30.4555 29.4828 30.565 29.2518 30.6136 28.8141C30.6744 28.3035 30.6501 28.2305 30.2489 27.8293L29.8233 27.4038L28.5954 27.4038L27.3674 27.4038L27.3674 23.9874C27.3674 21.8719 27.3188 20.4859 27.2458 20.34C27.0999 20.0725 26.4191 20.0117 26.1759 20.2549C26.0665 20.3643 26.03 21.4463 26.03 24.3764C26.03 27.9144 26.0543 28.3643 26.2245 28.5102C26.3583 28.6196 26.9054 28.7047 27.8537 28.7412L29.2762 28.802L26.5893 31.6713C25.1182 33.2518 23.027 35.4767 21.9571 36.6318L20.0118 38.7229L19.416 38.0786C19.0756 37.726 18.4799 37.0816 18.0786 36.6439C17.6653 36.2062 16.6197 35.0877 15.7565 34.1515C14.0422 32.3035 12.9479 31.1363 11.5619 29.6895L10.6744 28.7412L12.0604 28.7412C14.1759 28.7412 13.9935 29.1424 13.9935 24.4737C13.9935 22.0178 13.9449 20.498 13.872 20.34C13.7017 20.036 13.0452 20.0239 12.8264 20.3278C12.7048 20.4859 12.6683 21.3005 12.6562 23.9752L12.6562 27.4038L11.489 27.4038C9.87196 27.4038 9.37348 27.7321 9.37348 28.802C9.37348 29.3004 9.22758 29.1302 15.0878 35.4159C17.2641 37.7503 19.2093 39.7442 19.4282 39.8536C19.8172 40.0482 20.109 40.0846 20.4373 39.9631Z" fill="#64748B"/>
<path d="M23.1607 26.4798C23.3309 26.3217 23.3552 25.8719 23.3552 23.4403C23.3552 21.7017 23.3066 20.4858 23.2336 20.34C23.1485 20.1819 22.9783 20.1089 22.6865 20.1089C22.3947 20.1089 22.2245 20.1819 22.1394 20.34C22.0665 20.4858 22.0178 21.7017 22.0178 23.4403C22.0178 26.5284 22.0422 26.6743 22.6865 26.6743C22.8446 26.6743 23.0634 26.5892 23.1607 26.4798Z" fill="#64748B"/>
<path d="M17.8112 26.4798C17.9814 26.3217 18.0057 25.8719 18.0057 23.4403C18.0057 21.7017 17.9571 20.4858 17.8842 20.34C17.7991 20.1819 17.6288 20.1089 17.337 20.1089C17.0453 20.1089 16.875 20.1819 16.7899 20.34C16.717 20.4858 16.6684 21.7017 16.6684 23.4403C16.6684 26.5284 16.6927 26.6743 17.337 26.6743C17.4951 26.6743 17.7139 26.5892 17.8112 26.4798Z" fill="#64748B"/>
<path d="M6.01824 0.1973C5.42249 0.403986 4.92401 0.951099 4.7538 1.559C4.55927 2.2277 4.57143 16.7323 4.7538 17.2915C4.93617 17.8143 5.42249 18.3614 5.92097 18.5681C6.24924 18.714 8.64438 18.7383 19.9878 18.7383C29.3739 18.7383 33.7751 18.7019 34.0061 18.6046C34.4924 18.4222 34.8936 18.021 35.1489 17.4617C35.3556 16.9997 35.3799 16.5134 35.3799 9.49822C35.3799 4.44046 35.3313 1.86296 35.2462 1.53469C35.076 0.926785 34.4681 0.31888 33.8602 0.148666C33.5197 0.051403 29.3374 0.0149288 19.9392 0.0149288C8.68085 0.0270863 6.43161 0.051403 6.01824 0.1973ZM15.1368 2.00885L14.4073 2.66539L12.3647 2.71402C10.5046 2.75049 10.2979 2.77481 10.1398 2.9815C10.0426 3.11523 9.9696 3.38271 9.9696 3.56508C9.9696 4.25809 9.22796 5.16995 8.55927 5.30369C7.19757 5.58332 7.29483 5.26721 7.29483 9.35232C7.29483 13.1943 7.33131 13.3888 8 13.3888C8.51064 13.401 9.30091 13.8022 9.59271 14.2155C9.7386 14.4222 9.89666 14.8356 9.95745 15.1396C10.1277 16.0757 10.1033 16.0636 12.3891 16.0636L14.4073 16.0757L15.1125 16.7323L15.8176 17.401H11.1246C6.60182 17.401 6.43161 17.3888 6.20061 17.1578C5.95745 16.9146 5.95745 16.7566 5.95745 9.43743V1.94806L6.2614 1.65627L6.55319 1.35232H11.2097H15.8663L15.1368 2.00885ZM21.7994 1.74137C23.7568 2.37359 25.459 4.22162 26.2128 6.53165C26.541 7.54077 26.5653 7.74746 26.5653 9.43743C26.5532 11.0909 26.5289 11.3584 26.2249 12.2338C25.7751 13.5712 25.1307 14.6411 24.1945 15.5772C22.9179 16.8538 21.2766 17.4982 19.6353 17.3645C16.7295 17.1335 14.4559 14.945 13.6049 11.5651C13.228 10.0575 13.3131 7.92983 13.8237 6.43439C15.1246 2.62891 18.4924 0.647148 21.7994 1.74137ZM33.7386 1.65627L34.0425 1.94806V9.43743C34.0425 16.7566 34.0425 16.9146 33.7994 17.1578C33.5684 17.3888 33.3982 17.401 28.8754 17.401H24.1824L24.8875 16.7323L25.5927 16.0757L27.6109 16.0636C29.8967 16.0636 29.8723 16.0757 30.0425 15.1396C30.1033 14.8356 30.2614 14.4222 30.4073 14.2155C30.6991 13.8022 31.4894 13.401 32 13.3888C32.6687 13.3888 32.7052 13.1943 32.7052 9.35232C32.7052 5.57116 32.7052 5.559 32.0243 5.42527C31.8663 5.38879 31.5988 5.34016 31.4407 5.30369C30.772 5.16995 30.0304 4.25809 30.0304 3.56508C30.0304 3.38271 29.9574 3.11523 29.8602 2.9815C29.7021 2.77481 29.4954 2.75049 27.6353 2.71402L25.5927 2.66539L24.8632 2.00885L24.1337 1.35232H28.7903H33.4468L33.7386 1.65627ZM13.3374 4.17299C12.3769 6.3128 12.0365 7.67451 12.0365 9.44958C12.0365 10.9086 12.304 12.2095 12.8389 13.4496C13.0821 13.9845 13.3009 14.4952 13.3374 14.5681C13.386 14.6897 13.1429 14.7262 12.3526 14.7262H11.3191L11.0517 14.1183C10.7356 13.3766 9.79939 12.4891 9.1307 12.2824L8.63222 12.1365L8.65654 9.40095L8.69301 6.66539L9.19149 6.49517C10.1033 6.19122 10.845 5.36448 11.2219 4.23378C11.2827 4.06356 11.4529 4.02709 12.3526 4.02709C13.1429 4.02709 13.386 4.06356 13.3374 4.17299ZM28.8997 4.58636C29.2036 5.48606 30.1277 6.32496 31.1611 6.62891C31.3435 6.6897 31.3678 6.93287 31.3678 9.41311V12.1365L30.8693 12.2824C30.2006 12.4891 29.2644 13.3766 28.9483 14.1183L28.6808 14.7262H27.6596C27.0881 14.7262 26.6261 14.7019 26.6261 14.6654C26.6261 14.6289 26.7356 14.3858 26.8693 14.1183C27.5866 12.6958 27.9635 11.1396 27.9635 9.4739C27.9635 7.67451 27.6353 6.34928 26.6626 4.17299C26.614 4.0514 26.8328 4.02709 27.6596 4.0514L28.7295 4.08788L28.8997 4.58636Z" fill="#64748B"/>
<path d="M19.8176 2.77483C19.5015 2.88425 19.3313 3.20036 19.3313 3.67452C19.3313 4.10006 19.3069 4.12437 18.8814 4.20948C17.2401 4.50127 16.0486 5.71708 16.0486 7.06662C16.0486 7.84474 16.3647 8.48912 17.0334 9.06055C17.544 9.49824 18.6382 9.98456 19.0881 9.98456C19.3191 9.98456 19.3313 10.0818 19.3313 11.6259C19.3313 13.4739 19.3434 13.4618 18.4194 13.0362C17.7993 12.7566 17.544 12.4526 17.3495 11.8083C17.1671 11.1639 16.9118 10.9815 16.4498 11.1517C16.1337 11.2612 16.1094 11.3098 16.1094 11.942C16.1094 12.4891 16.1823 12.7201 16.462 13.1335C16.9118 13.7779 17.6656 14.2764 18.6018 14.5317C19.3313 14.7384 19.3313 14.7384 19.3313 15.2004C19.3313 15.4922 19.4164 15.7353 19.5501 15.8569C20.0607 16.3189 20.6686 15.942 20.6686 15.1761C20.6686 14.7384 20.6808 14.7384 21.3981 14.5317C22.3343 14.2764 23.0881 13.7779 23.5379 13.1213C23.8419 12.6836 23.8905 12.5134 23.8905 11.7475C23.8905 10.9937 23.8419 10.8113 23.5501 10.3615C23.1367 9.7414 22.2978 9.18213 21.3738 8.92681L20.6686 8.73228V7.1031C20.6686 5.88729 20.7051 5.48608 20.8267 5.48608C20.8996 5.48608 21.2522 5.61981 21.5805 5.77787C22.2249 6.06966 22.5167 6.39793 22.6626 7.00583C22.7841 7.50431 22.9544 7.67453 23.3313 7.67453C23.7811 7.67453 23.9513 7.46784 23.9513 6.92073C23.9513 5.71708 22.6747 4.48911 21.1306 4.20948C20.693 4.12437 20.6686 4.10006 20.6686 3.65021C20.6686 3.3341 20.5835 3.09094 20.4255 2.93288C20.1702 2.67756 20.1215 2.66541 19.8176 2.77483ZM19.3313 7.06662C19.3313 8.24595 19.2948 8.64717 19.1854 8.64717C18.8693 8.64717 17.775 8.05143 17.5805 7.78395C17.082 7.06662 17.4711 6.19124 18.5045 5.72924C19.3556 5.34018 19.3313 5.31586 19.3313 7.06662ZM22.1398 10.8356C22.5167 11.1882 22.6139 11.3706 22.6139 11.711C22.6139 12.2581 22.237 12.7444 21.5927 13.0362C20.6565 13.4618 20.6686 13.4739 20.6686 11.6988V10.1305L21.1671 10.2642C21.4589 10.3371 21.8723 10.5803 22.1398 10.8356Z" fill="#64748B"/>
</g>
<defs>
<clipPath id="clip0_1_383">
<rect width="40" height="40" fill="white"/>
</clipPath>
</defs>
</svg>
