<svg width="44" height="44" viewBox="0 0 44 44" fill="none" xmlns="http://www.w3.org/2000/svg">
<g filter="url(#filter0_d_1_295)">
<rect x="2" y="1" width="40" height="40" rx="20" fill="#4F46E5"/>
<g filter="url(#filter1_d_1_295)">
<path fill-rule="evenodd" clip-rule="evenodd" d="M20.2 15.6C18.2118 15.6 16.6 17.2118 16.6 19.2C16.6 21.1883 18.2118 22.8 20.2 22.8C22.1883 22.8 23.8 21.1883 23.8 19.2C23.8 17.2118 22.1883 15.6 20.2 15.6ZM14.8 19.2C14.8 16.2177 17.2177 13.8 20.2 13.8C23.1824 13.8 25.6 16.2177 25.6 19.2C25.6 20.3663 25.2303 21.4462 24.6017 22.3289L28.9364 26.6637C29.2879 27.0151 29.2879 27.585 28.9364 27.9364C28.585 28.2879 28.0151 28.2879 27.6637 27.9364L23.3289 23.6017C22.4462 24.2303 21.3663 24.6 20.2 24.6C17.2177 24.6 14.8 22.1824 14.8 19.2Z" fill="white"/>
</g>
</g>
<defs>
<filter id="filter0_d_1_295" x="0" y="0" width="44" height="44" filterUnits="userSpaceOnUse" color-interpolation-filters="sRGB">
<feFlood flood-opacity="0" result="BackgroundImageFix"/>
<feColorMatrix in="SourceAlpha" type="matrix" values="0 0 0 0 0 0 0 0 0 0 0 0 0 0 0 0 0 0 127 0" result="hardAlpha"/>
<feOffset dy="1"/>
<feGaussianBlur stdDeviation="1"/>
<feColorMatrix type="matrix" values="0 0 0 0 0.0627451 0 0 0 0 0.0941176 0 0 0 0 0.156863 0 0 0 0.05 0"/>
<feBlend mode="normal" in2="BackgroundImageFix" result="effect1_dropShadow_1_295"/>
<feBlend mode="normal" in="SourceGraphic" in2="effect1_dropShadow_1_295" result="shape"/>
</filter>
<filter id="filter1_d_1_295" x="11" y="11" width="22" height="22" filterUnits="userSpaceOnUse" color-interpolation-filters="sRGB">
<feFlood flood-opacity="0" result="BackgroundImageFix"/>
<feColorMatrix in="SourceAlpha" type="matrix" values="0 0 0 0 0 0 0 0 0 0 0 0 0 0 0 0 0 0 127 0" result="hardAlpha"/>
<feOffset dy="1"/>
<feGaussianBlur stdDeviation="1"/>
<feColorMatrix type="matrix" values="0 0 0 0 0.0627451 0 0 0 0 0.0941176 0 0 0 0 0.156863 0 0 0 0.05 0"/>
<feBlend mode="normal" in2="BackgroundImageFix" result="effect1_dropShadow_1_295"/>
<feBlend mode="normal" in="SourceGraphic" in2="effect1_dropShadow_1_295" result="shape"/>
</filter>
</defs>
</svg>
