<svg width="32" height="32" viewBox="0 0 32 32" fill="none" xmlns="http://www.w3.org/2000/svg">
<path fill-rule="evenodd" clip-rule="evenodd" d="M18.3828 5.07346C17.7763 2.57545 14.2237 2.57545 13.6172 5.07346C13.2255 6.68714 11.3767 7.45293 9.95866 6.58889C7.76349 5.25135 5.2514 7.76344 6.58894 9.95861C7.45298 11.3767 6.68719 13.2254 5.07351 13.6172C2.5755 14.2236 2.5755 17.7763 5.07351 18.3827C6.68719 18.7745 7.45298 20.6232 6.58894 22.0413C5.2514 24.2365 7.76349 26.7486 9.95866 25.411C11.3767 24.547 13.2255 25.3128 13.6172 26.9264C14.2237 29.4245 17.7763 29.4245 18.3828 26.9264C18.7745 25.3128 20.6233 24.547 22.0413 25.411C24.2365 26.7486 26.7486 24.2365 25.4111 22.0413C24.547 20.6232 25.3128 18.7745 26.9265 18.3827C29.4245 17.7763 29.4245 14.2236 26.9265 13.6172C25.3128 13.2254 24.547 11.3767 25.4111 9.95861C26.7486 7.76344 24.2365 5.25135 22.0413 6.58889C20.6233 7.45293 18.7745 6.68714 18.3828 5.07346ZM16 20.7999C18.651 20.7999 20.8 18.6509 20.8 16C20.8 13.349 18.651 11.2 16 11.2C13.349 11.2 11.2 13.349 11.2 16C11.2 18.6509 13.349 20.7999 16 20.7999Z" fill="#CBCFD5"/>
</svg>
