<svg width="32" height="32" viewBox="0 0 32 32" fill="none" xmlns="http://www.w3.org/2000/svg">
<path fill-rule="evenodd" clip-rule="evenodd" d="M4.79999 6.39999C4.79999 5.51633 5.51633 4.79999 6.39999 4.79999H12.8C13.6836 4.79999 14.4 5.51633 14.4 6.39999C14.4 7.28364 13.6836 7.99999 12.8 7.99999H10.2627L13.9314 11.6686C14.5562 12.2935 14.5562 13.3065 13.9314 13.9314C13.3065 14.5562 12.2935 14.5562 11.6686 13.9314L7.99999 10.2627V12.8C7.99999 13.6836 7.28364 14.4 6.39999 14.4C5.51633 14.4 4.79999 13.6836 4.79999 12.8V6.39999ZM19.2 7.99999C18.3163 7.99999 17.6 7.28364 17.6 6.39999C17.6 5.51633 18.3163 4.79999 19.2 4.79999H25.6C26.4836 4.79999 27.2 5.51633 27.2 6.39999V12.8C27.2 13.6836 26.4836 14.4 25.6 14.4C24.7163 14.4 24 13.6836 24 12.8V10.2627L20.3314 13.9314C19.7065 14.5562 18.6935 14.5562 18.0686 13.9314C17.4438 13.3065 17.4438 12.2935 18.0686 11.6686L21.7372 7.99999H19.2ZM4.79999 19.2C4.79999 18.3163 5.51633 17.6 6.39999 17.6C7.28364 17.6 7.99999 18.3163 7.99999 19.2V21.7372L11.6686 18.0686C12.2935 17.4438 13.3065 17.4438 13.9314 18.0686C14.5562 18.6935 14.5562 19.7065 13.9314 20.3314L10.2627 24H12.8C13.6836 24 14.4 24.7163 14.4 25.6C14.4 26.4836 13.6836 27.2 12.8 27.2H6.39999C5.51633 27.2 4.79999 26.4836 4.79999 25.6V19.2ZM25.6 17.6C26.4836 17.6 27.2 18.3163 27.2 19.2V25.6C27.2 26.4836 26.4836 27.2 25.6 27.2H19.2C18.3163 27.2 17.6 26.4836 17.6 25.6C17.6 24.7163 18.3163 24 19.2 24H21.7372L18.0686 20.3314C17.4438 19.7065 17.4438 18.6935 18.0686 18.0686C18.6935 17.4438 19.7065 17.4438 20.3314 18.0686L24 21.7372V19.2C24 18.3163 24.7163 17.6 25.6 17.6Z" fill="#64748B"/>
</svg>
