<svg width="18" height="19" viewBox="0 0 18 19" fill="none" xmlns="http://www.w3.org/2000/svg">
<path fill-rule="evenodd" clip-rule="evenodd" d="M2.7 5.21958C2.7 4.72252 3.10294 4.31958 3.6 4.31958H14.4C14.8971 4.31958 15.3 4.72252 15.3 5.21958C15.3 5.71664 14.8971 6.11958 14.4 6.11958H3.6C3.10294 6.11958 2.7 5.71664 2.7 5.21958Z" fill="white"/>
<path fill-rule="evenodd" clip-rule="evenodd" d="M2.7 9.71958C2.7 9.22252 3.10294 8.81958 3.6 8.81958H14.4C14.8971 8.81958 15.3 9.22252 15.3 9.71958C15.3 10.2166 14.8971 10.6196 14.4 10.6196H3.6C3.10294 10.6196 2.7 10.2166 2.7 9.71958Z" fill="white"/>
<path fill-rule="evenodd" clip-rule="evenodd" d="M2.7 14.2196C2.7 13.7225 3.10294 13.3196 3.6 13.3196H14.4C14.8971 13.3196 15.3 13.7225 15.3 14.2196C15.3 14.7166 14.8971 15.1196 14.4 15.1196H3.6C3.10294 15.1196 2.7 14.7166 2.7 14.2196Z" fill="white"/>
</svg>
